<svg width="22" height="28" viewBox="0 0 22 28" fill="none" xmlns="http://www.w3.org/2000/svg">
<path fill-rule="evenodd" clip-rule="evenodd" d="M18.2924 19.1221C18.8472 19.6744 18.8976 20.5385 18.4437 21.1475L18.2924 21.322L12.0422 27.5444C11.432 28.1519 10.4428 28.1519 9.83258 27.5444C9.27782 26.9921 9.22739 26.128 9.68128 25.519L9.83258 25.3445L16.0828 19.1221C16.693 18.5146 17.6822 18.5146 18.2924 19.1221ZM9.375 0C14.5527 0 18.75 4.17868 18.75 9.3333C18.75 14.4879 14.5527 18.6666 9.375 18.6666C4.19735 18.6666 0 14.4879 0 9.3333C0 4.17868 4.19735 0 9.375 0ZM9.375 3.1111C5.9233 3.1111 3.125 5.89676 3.125 9.3333C3.125 12.7698 5.9233 15.5555 9.375 15.5555C12.8269 15.5555 15.625 12.7698 15.625 9.3333C15.625 5.89676 12.8269 3.1111 9.375 3.1111ZM20.3127 0C21.1756 0 21.875 0.696321 21.875 1.55555C21.875 2.41478 21.1756 3.1111 20.3127 3.1111C19.4496 3.1111 18.7502 2.41478 18.7502 1.55555C18.7502 0.696321 19.4496 0 20.3127 0Z" fill="white"/>
</svg>
